<?xml version="1.0" encoding="utf-8"?>
<!-- Generator: Adobe Illustrator 19.2.1, SVG Export Plug-In . SVG Version: 6.00 Build 0)  -->
<svg version="1.1" id="Layer_1" xmlns="http://www.w3.org/2000/svg" xmlns:xlink="http://www.w3.org/1999/xlink" x="0px" y="0px"
	 viewBox="0 0 400 400" style="enable-background:new 0 0 400 400;" xml:space="preserve">
<style type="text/css">
	.st0{fill:#0000FF;}
</style>
<title>insta</title>
<g>
	<path class="st0" d="M144.3,207.8c-7.9,0-15.7,0-23.6,0c-8.4,0-16.8,0-25.2,0c-2.9,0-2.9,0-2.9,2.9c0,14.7,0,29.4,0,44.1
		c0,2.9,0,2.9,2.9,2.9c15,0,29.9,0,44.9,0c2.5,0,5.1,0,7.6-0.3c9.9-1.4,15.9-6.9,17.8-16.7c0.9-4.7,0.8-9.5,0.1-14.2
		C164.2,214.7,156.3,207.8,144.3,207.8z"/>
	<path class="st0" d="M94.5,179.4c17-0.1,34,0,50.9-0.1c6.9-0.1,11.2-3.6,13.1-10.1c1.6-5.6,1.6-11.3,1.1-17
		c-0.2-2.1-0.8-4.2-1.7-6.2c-2.5-5.2-6.5-8.1-12.5-8.1c-8.2,0.1-16.4,0-24.6,0l0,0c-8.7,0-17.4,0-26.2,0c-1.5,0-2.1,0.5-2.1,2
		c0,12.6,0,25.1,0,37.7C92.6,178.8,93,179.4,94.5,179.4z"/>
	<path class="st0" d="M297.3,181.3c-6.9-2.7-14.1-2.7-21.3-0.9c-14.1,3.6-20.8,15.9-23,26.1c-0.4,1.6,0.7,1.3,1.6,1.3
		c9.6,0,19.1,0,28.7,0c8.5,0,17.1,0,25.6,0c5.4,0,5.4,0,4.5-5.3C311.4,192.9,306.9,185.1,297.3,181.3z"/>
	<path class="st0" d="M0,0v400h400V0H0z M247,115.9c24,0,47.9,0,71.9,0c1.9,0,2.4,0.7,2.4,2.5c-0.1,5.9-0.1,11.7,0,17.6
		c0,1.9-0.6,2.5-2.5,2.4c-12-0.1-24,0-35.9,0c-11.8,0-23.7,0-35.5,0c-2.6,0-2.7-0.1-2.7-2.6c0-5.9,0.1-11.7,0-17.6
		C244.5,116.4,245.2,115.9,247,115.9z M205.6,240.6c-0.5,7.1-1.8,13.9-4.8,20.4c-5.9,12.8-16.1,20.6-29.1,25.3
		c-8.3,3-16.8,4.4-25.6,4.4c-31,0-62,0-93,0c-2.9,0-2.9,0-2.9-2.8c0-60,0-120,0-180.1c0-2.7,0.1-2.8,2.7-2.8
		c32.2,0,64.3-0.1,96.5,0.1c12.7,0,24.4,3.6,34.4,11.8c5.6,4.7,9.7,10.5,12.2,17.4c3.7,10.1,4.6,20.5,2.2,31.1
		c-2.8,12-10.3,19.5-21.9,23.3c-0.7,0.2-1.3,0.4-2,0.6c0.6,0.9,1.5,0.6,2.2,0.8c12.6,1.9,20.7,9.3,25.3,20.9
		C205.5,220.5,206.3,230.4,205.6,240.6z M349.6,230.8c-0.1,1.9-1.1,2-2.6,2c-15.3,0-30.6,0-45.9,0s-30.6,0-45.9,0
		c-1.8,0-2.3,0.5-2.2,2.3c0.5,8.4,2.6,16,9,22c4.5,4.2,10,6.5,16,7.5c9,1.4,17.9,0.9,26.3-3c6.1-2.8,9.9-7.5,11-14.2
		c0.3-1.7,1.1-2.1,2.6-2.1c9.3,0,18.6,0,27.9,0c1.5,0,2.4,0.4,2.3,2.1c-0.7,13.4-5.1,25-15.9,33.6c-7.5,6-16.1,9.5-25.4,11.4
		c-16.5,3.5-33,3.3-49.2-1.5c-21.1-6.2-34.8-20.3-41-41.3c-7.5-25.5-3.6-49.5,11.4-71.4c8.6-12.6,20.9-20.1,35.7-23.6
		c13.7-3.2,27.5-3.4,41.2,0c20.1,4.9,33.1,17.7,39.9,37C349.4,204.3,350.2,217.5,349.6,230.8z"/>
</g>
</svg>
