<?xml version="1.0" encoding="utf-8"?>
<!-- Generator: Adobe Illustrator 19.2.1, SVG Export Plug-In . SVG Version: 6.00 Build 0)  -->
<svg version="1.1" id="Layer_1" xmlns="http://www.w3.org/2000/svg" xmlns:xlink="http://www.w3.org/1999/xlink" x="0px" y="0px"
	 viewBox="0 0 400 400" style="enable-background:new 0 0 400 400;" xml:space="preserve">
<style type="text/css">
	.st0{fill:#0000FF;}
</style>
<g>
	<path class="st0" d="M313.5,115.4c-4.2-11.4-12-19.8-22.7-25.2c-9.5-4.9-19.9-6.3-30.4-6.8c-10.8-0.5-21.7-0.6-32.5-0.8
		c-8.9-0.1-17.9,0-26.8,0c0,0.2,0,0.5,0,0.7c-17.1,0-34.2,0-51.3,0c-10.1,0-20,0.6-29.7,3.6c-17,5.1-27.7,16.2-33.1,33
		c-4.1,12.7-4,25.8-4,38.7c-0.2,35.4-1.6,70.9,1.3,106.3c0.6,7.3,2.2,14.6,4.4,21.5c3.7,11.6,11.9,19.8,22.5,25.4
		c9.4,4.9,19.9,6.3,30.4,6.9c10.3,0.5,20.7,0.8,31,0.7c31-0.2,62,1,92.9-1.3c8.3-0.6,16.2-2.2,23.8-5.6c13.4-6,21.5-16.4,26-30.1
		c4.1-12.6,4-25.8,4.1-38.7c0.1-35.4,1.4-70.9-1.1-106.3C317.6,129.7,316.1,122.4,313.5,115.4z M200.6,275.8
		c-42.8-0.3-74.8-33.5-74.5-75.3c0.3-42.3,33-74.5,75-74.4c42.7,0.1,73.7,33.2,75,75.1C274.5,243.6,242.8,276.1,200.6,275.8z
		 M278.1,141.4c-9.6-0.2-17.3-8-17.4-17.7c-0.1-8.5,7.4-18.3,18.5-17.5c9.5,0.7,16.6,7.4,16.6,17.3
		C296.9,133.6,287,141.6,278.1,141.4z"/>
	<path class="st0" d="M0,0v400h400V0H0z M346,262.6c-0.3,0.8-0.9,1.6-0.9,2.4c-0.5,10.2-2.3,20-5.8,29.6
		c-6,16.5-16.6,29.3-31.6,38.1c-6.9,4-14.6,6.9-22.3,9.2c-6.1,1.9-12.6,2.1-18.9,3.1c-1.3,0.2-2.5,0.6-3.8,1c-41.1,0-82.2,0-123.3,0
		c-0.7-0.3-1.3-0.9-2-0.9c-8.4-0.4-16.4-2-24.5-4.2c-15.9-4.1-28.5-13.2-38.5-25.5c-11.6-14.2-16.3-31.2-17.4-49.3
		c-0.1-1.2-0.6-2.3-0.9-3.5c0-41.1,0-82.2,0-123.3c0.3-0.8,0.9-1.6,0.9-2.4c0.4-10.2,2.4-20,5.8-29.6c6-16.5,16.6-29.3,31.6-38.1
		c6.9-4,14.6-6.9,22.3-9.2c6.1-1.9,12.6-2.1,18.9-3.1c1.3-0.2,2.5-0.6,3.8-1c41.1,0,82.2,0,123.3,0c0.5,0.3,1.1,0.9,1.6,0.9
		c3.1,0.3,6.2,0.4,9.3,0.8c10.1,1.2,19.7,4.1,28.9,8.4c9,4.2,16.1,10.7,22.8,17.8c7.4,7.8,12.4,17,15.2,27.2
		c2.3,8.7,3.1,17.7,4.6,26.6c0.1,0.6,0.6,1.1,0.9,1.6C346,180.5,346,221.5,346,262.6z"/>
	<path class="st0" d="M201.3,153c-27.2-0.2-48.2,20.9-48.3,47.9c0,26.9,20.7,47.5,47.8,48.1c26.9-0.5,47.9-20.8,48.1-47.9
		C249.1,174.5,228.5,153.2,201.3,153z"/>
</g>
</svg>
